<svg xmlns="http://www.w3.org/2000/svg" viewBox="0 0 133.93 133.93"><defs><style>.b{fill:#005191}.d{fill:#9eb3c0}.e{fill:#fff}.f{fill:#53626f}.g{fill:#3ea6dd}</style></defs><path d="M29.96 80.39 14.94 91.61v7.57h2.43v2.73h-2.43v11.81h3.1v3.05h26.94V91.61L29.96 80.39zm17.78 36.38h30.03V65.13L47.74 45.05v71.72zM93.17 13.98h3.61V0h4.18v13.98h3.62v6.96h4.89v6.89h7.74l.05 88.44H80.53V27.83h7.74v-6.9h4.9V14Z" style="fill-rule:evenodd;fill:#005191"/><path d="M102.72 121.99h4.67v4.6h-4.67z" class="d"/><path d="M111.07 114.4h6.19v6.1h-6.19zm-22.39 12.8h2.43v2.39h-2.43zm-73.74-3.64h2.43v2.39h-2.43z" class="b"/><path d="M92.22 131.53h2.43v2.39h-2.43zm-28.9-1.77h2.43v2.39h-2.43z" class="f"/><path d="M26.32 106.01h2.43v2.39h-2.43z" class="d"/><path d="M89.67 116.05h5.31v5.23h-5.31zm-50.01-1.41h5.31v5.23h-5.31zm40.87 10.46h4.43v4.36h-4.43zm-60.63-5.32h4.43v4.36H19.9z" class="b"/><path d="M96.2 124.49h3.01v2.96H96.2zm-81.26 6.47h3.01v2.96h-3.01z" class="g"/><path d="M32.79 120.07h3.01v2.96h-3.01z" class="f"/><path d="M74.23 116.58h3.54v3.49h-3.54z" class="b"/><path d="M81.36 116.65h2.77v2.73h-2.77zm-54.82 7.41h2.77v2.73h-2.77zm15.66 1.16h2.77v2.73H42.2z" class="g"/><path d="M53.37 125.37h3.16v3.12h-3.16z" class="b"/><path d="M68.25 124.76h4.92v4.85h-4.92z" class="d"/><path d="M59.36 119.44h5.18v5.1h-5.18zm52.73 9.39h5.18v5.1h-5.18z" class="g"/><path d="M113.11 73.31h5.86v6.1h-5.86zm-6.18 11.59h6.19V91h-6.19zm6.62 24.26h5.44v5.23h-5.44zm-10.15 3.74h4.43v4.36h-4.43zm-81.28 0h4.43v4.36h-4.43zm75.98-7.52h3.54v3.49H98.1zm3.86-27.25h3.54v3.49h-3.54zm-1.1 18.33h4.87v4.79h-4.87zm12.25 2.43h5.88v4.14h-5.88z" class="e"/><path d="M106.93 104.76h2.77v2.73h-2.77zm-75.72 3.56h2.77v2.73h-2.77z" class="g"/><path d="M101.19 90.75h2.77v2.73h-2.77zM30.2 96.07h2.77v2.73H30.2zm7.78 10.42h2.77v2.73h-2.77z" class="e"/><path d="M51.86 109.69h1.97v1.94h-1.97z" class="d"/><path d="M87.13 83.44h8.29v8.17h-8.29zM83.05 97.1h6.19v6.1h-6.19zm-42.29-1.29h6.19v6.1h-6.19zm39.3-5.44h3.54v3.49h-3.54zm-.66 21.62h4.87v4.79H79.4z" class="e"/><path d="M89.23 108.66h4.21v4.14h-4.21zm-56.14 19.35h4.21v4.14h-4.21z" class="d"/><path d="M71.51 82.95h6.81v6.7h-6.81zm-6.98 12.31h4.96v4.89h-4.96zm-47.16 6.65h4.96v4.89h-4.96zm38.34 12.62h3.54v3.49h-3.54zm-24.69 0h3.54v3.49h-3.54zm28.55-26.04h3.54v3.49h-3.54zm-1.11 18.34h4.87v4.79h-4.87zm-6.6-13.96h3.42v3.37h-3.42zm18.85 15.79h4.21v4.14h-4.21zm-5.36 5.91h4.95v4.87h-4.95z" class="e"/><path d="M58.8 101.11h2.77v2.73H58.8z" class="g"/></svg>
